<?xml version="1.0" encoding="UTF-8"?>
<svg xmlns="http://www.w3.org/2000/svg" xmlns:xlink="http://www.w3.org/1999/xlink" width="837px" height="473px" viewBox="0 0 837 473" version="1.1">
  <!-- Generator: Sketch 64 (93537) - https://sketch.com -->
  <title>HOGENT_Logo_Pos_pms</title>
  <desc>Created with Sketch.</desc>
  <defs>
    <polygon id="path-1" points="0 0.2505 207.913 0.2505 207.913 217.8125 0 217.8125"></polygon>
  </defs>
  <g id="HOGENT_Logo_Pos_pms" stroke="none" stroke-width="1" fill="none" fill-rule="evenodd">
    <polygon id="Fill-1" fill="#030100" points="224.4175 8.5045 224.4175 217.7025 162.0455 217.7025 162.0455 136.1155 76.9945 136.1155 76.9945 217.7025 14.6225 217.7025 14.6225 8.5045 76.9945 8.5045 76.9945 87.1015 162.0455 87.1015 162.0455 8.5045"></polygon>
    <g id="Group-7" transform="translate(0.000000, -0.401000)">
      <path d="M306.1553,204.0583 C288.5243,194.6953 274.6723,181.7473 264.6153,165.2043 C254.5513,148.6713 249.5233,130.0453 249.5233,109.3223 C249.5233,88.6013 254.5513,69.9753 264.6153,53.4373 C274.6723,36.8993 288.5243,23.9523 306.1553,14.5833 C323.7883,5.2203 343.6623,0.5383 365.7773,0.5383 C387.8913,0.5383 407.7663,5.2203 425.3963,14.5833 C443.0293,23.9523 456.8743,36.8993 466.9373,53.4373 C476.9973,69.9753 482.0303,88.6013 482.0303,109.3223 C482.0303,130.0453 476.9973,148.6713 466.9373,165.2043 C456.8743,181.7473 443.0293,194.6953 425.3963,204.0583 C407.7663,213.4253 387.8913,218.1023 365.7773,218.1023 C343.6623,218.1023 323.7883,213.4253 306.1553,204.0583 M394.4653,161.6193 C403.0313,156.6413 409.8063,149.6193 414.7893,140.5513 C419.7673,131.4873 422.2613,121.0783 422.2613,109.3223 C422.2613,97.5683 419.7673,87.1583 414.7893,78.0913 C409.8063,69.0273 403.0313,62.0053 394.4653,57.0223 C385.8973,52.0423 376.3343,49.5503 365.7773,49.5503 C355.2153,49.5503 345.6523,52.0423 337.0863,57.0223 C328.5193,62.0053 321.7433,69.0273 316.7653,78.0913 C311.7833,87.1583 309.2933,97.5683 309.2933,109.3223 C309.2933,121.0783 311.7833,131.4873 316.7653,140.5513 C321.7433,149.6193 328.5193,156.6413 337.0863,161.6193 C345.6523,166.6043 355.2153,169.0923 365.7773,169.0923 C376.3343,169.0923 385.8973,166.6043 394.4653,161.6193" id="Fill-2" fill="#030100"></path>
      <g id="Group-6" transform="translate(0.000000, 255.000000)">
        <mask id="mask-2" fill="white">
          <use xlink:href="#path-1"></use>
        </mask>
        <g id="Clip-5"></g>
        <path d="M150.832,104.5495 L203.132,104.5495 L203.132,191.2155 C191.177,199.7845 177.432,206.3615 161.89,210.9395 C146.351,215.5215 130.811,217.8125 115.269,217.8125 C93.35,217.8125 73.625,213.1835 56.098,203.9165 C38.562,194.6535 24.814,181.7565 14.855,165.2155 C4.89,148.6825 -0.088,129.9495 -0.088,109.0315 C-0.088,88.1135 4.89,69.3865 14.855,52.8475 C24.814,36.3115 38.659,23.4095 56.397,14.1465 C74.126,4.8795 94.147,0.2505 116.465,0.2505 C135.989,0.2505 153.523,3.5355 169.062,10.1115 C184.602,16.6865 197.553,26.1515 207.913,38.5015 L170.259,72.5705 C156.109,57.0315 139.177,49.2595 119.454,49.2595 C101.523,49.2595 87.074,54.6905 76.12,65.5485 C65.159,76.4095 59.682,90.9045 59.682,109.0315 C59.682,120.5895 62.172,130.8995 67.155,139.9625 C72.132,149.0305 79.109,156.0995 88.075,161.1815 C97.041,166.2625 107.298,168.8035 118.857,168.8035 C130.212,168.8035 140.868,166.5135 150.832,161.9285 L150.832,104.5495 Z" id="Fill-4" fill="#030100" mask="url(#mask-2)"></path>
      </g>
    </g>
    <polygon id="Fill-8" fill="#030100" points="399.0742 422.505 399.0742 468.229 240.3222 468.229 240.3222 259.031 399.0742 259.031 399.0742 304.757 298.8982 304.757 298.8982 340.021 399.0742 340.021 399.0742 384.25 298.8982 384.25 298.8982 422.505"></polygon>
    <polygon id="Fill-9" fill="#030100" points="634.2109 259.0318 634.2109 468.2298 585.4989 468.2298 493.1509 356.7558 493.1509 468.2298 435.1729 468.2298 435.1729 259.0318 483.8879 259.0318 576.2319 370.5038 576.2319 259.0318"></polygon>
    <polygon id="Fill-10" fill="#030100" points="661.1022 259.0317 661.1022 305.9527 719.8412 305.9527 719.8412 468.2297 779.0142 468.2297 779.0142 305.9527 837.4522 305.9527 837.4522 259.0317"></polygon>
  </g>
</svg>
